<svg width="844" height="363" viewBox="0 0 844 363" fill="none" xmlns="http://www.w3.org/2000/svg">
<path fill-rule="evenodd" clip-rule="evenodd" d="M0.674083 239.25C0.674083 105.901 -9.31752 162.818 47.6346 211.604C104.587 260.39 168.533 62.5362 281.438 149.809C394.343 237.082 469.28 266.895 563.201 266.895C656.123 266.895 747.047 201.847 797.005 122.164C846.963 42.4798 843.966 -81.1113 843.966 75.0037C843.966 231.119 843.966 362.841 843.966 362.841H797.005C750.045 362.841 656.123 362.841 563.201 362.841C469.28 362.841 375.359 362.841 281.438 362.841C188.516 362.841 94.5952 362.841 47.6346 362.841H0.674083C0.674083 362.841 0.674083 372.598 0.674083 239.25Z" fill="#F9F9F9"/>
</svg>
